<mxfile host="app.diagrams.net" modified="2021-05-29T07:05:37.682Z" agent="5.0 (Windows NT 10.0; Win64; x64) AppleWebKit/537.36 (KHTML, like Gecko) Chrome/80.0.3987.149 Safari/537.36" etag="7mrm9X1hWMHXVKJr9Bf8" version="14.7.2" type="github">
  <diagram id="5wySr9Ga_eyc5_N4ZeZu" name="Page-1">
    <mxGraphModel dx="1422" dy="794" grid="1" gridSize="10" guides="1" tooltips="1" connect="1" arrows="1" fold="1" page="1" pageScale="1" pageWidth="827" pageHeight="1169" math="0" shadow="0">
      <root>
        <mxCell id="0" />
        <mxCell id="1" parent="0" />
        <mxCell id="MSGiPbIiR5DJdHYv9Hz--1" value="&lt;font style=&quot;font-size: 14px&quot;&gt;spring&amp;nbsp;boot&lt;/font&gt;" style="rounded=1;whiteSpace=wrap;html=1;" vertex="1" parent="1">
          <mxGeometry x="280" y="210" width="120" height="60" as="geometry" />
        </mxCell>
      </root>
    </mxGraphModel>
  </diagram>
</mxfile>
